# xmcd
#
# Track frame offsets:
#	150
#	21954
#	43632
#	62528
#	84419
#	95619
#	133670
#	147974
#	169566
#	184055
#	205725
#	216683
#	254427
#	276061
#	297575
#	312057
#
# Disc length: 4449 seconds
#
# Revision: 0
# Processed by: cddbd v1.5.2PL0 Copyright (c) Steve Scherf et al.
# Submitted via: EasyCDDAExtractor 15.3.0.1
#
DISCID=f1115f10
DTITLE=Luke Brady - Take your partners for... Vol 3
DYEAR=1999
DGENRE=SCD
TTITLE0=Sleepy Maggie - R8x32
TTITLE1=The Wild Geese - J8x32
TTITLE2=12 Coates Crescent - S4x32
TTITLE3=Cati Ramsay - R8x32
TTITLE4=The Dhoon - J4x32
TTITLE5=Miss Milligan's Strathspey - S8x32
TTITLE6=The Kandahar Reel - R5x32
TTITLE7=Joie De Vivre - J8x32
TTITLE8=The Silver Grey - S3x32
TTITLE9=The Sailor - H8x32
TTITLE10=The Flying Scotsman - J4x32
TTITLE11=Gang the Same Gate - S8x32
TTITLE12=Inverneill House - R8x32
TTITLE13=Follow Me Home - J8x32
TTITLE14=Bruce's Men - S3x32
TTITLE15=John of Bon Accord - R8x32
EXTD=
EXTT0=
EXTT1=
EXTT2=
EXTT3=
EXTT4=
EXTT5=
EXTT6=
EXTT7=
EXTT8=
EXTT9=
EXTT10=
EXTT11=
EXTT12=
EXTT13=
EXTT14=
EXTT15=
PLAYORDER=
